G04 #@! TF.FileFunction,Soldermask,Bot*
%FSLAX46Y46*%
G04 Gerber Fmt 4.6, Leading zero omitted, Abs format (unit mm)*
G04 Created by KiCad (PCBNEW 4.0.4-stable) date 09/24/16 18:26:32*
%MOMM*%
%LPD*%
G01*
G04 APERTURE LIST*
%ADD10C,0.100000*%
%ADD11R,2.432000X2.127200*%
%ADD12O,2.432000X2.127200*%
%ADD13R,1.450000X1.450000*%
%ADD14C,1.450000*%
%ADD15R,2.432000X2.432000*%
%ADD16O,2.432000X2.432000*%
%ADD17R,2.127200X2.127200*%
%ADD18O,2.127200X2.127200*%
%ADD19R,1.600000X1.150000*%
%ADD20R,1.197560X1.197560*%
%ADD21R,1.700000X1.900000*%
%ADD22R,1.600000X1.300000*%
%ADD23R,1.300000X1.600000*%
%ADD24R,0.650000X1.100000*%
%ADD25R,1.100000X0.650000*%
%ADD26R,2.125000X2.125000*%
%ADD27R,1.050000X1.460000*%
%ADD28R,1.150000X1.600000*%
G04 APERTURE END LIST*
D10*
D11*
X120650000Y-99060000D03*
D12*
X120650000Y-101600000D03*
X120650000Y-104140000D03*
D13*
X132080000Y-101473000D03*
D14*
X130810000Y-101473000D03*
X129540000Y-101473000D03*
X128270000Y-101473000D03*
X127000000Y-101473000D03*
X130810000Y-102743000D03*
X129540000Y-102743000D03*
X128270000Y-102743000D03*
X127000000Y-102743000D03*
X132080000Y-102743000D03*
D15*
X124206000Y-102870000D03*
D16*
X124206000Y-105410000D03*
D11*
X148717000Y-97790000D03*
D12*
X148717000Y-100330000D03*
X148717000Y-102870000D03*
X148717000Y-105410000D03*
D17*
X145161000Y-104140000D03*
D18*
X142621000Y-104140000D03*
X145161000Y-101600000D03*
X142621000Y-101600000D03*
X145161000Y-99060000D03*
X142621000Y-99060000D03*
D19*
X135890000Y-97155000D03*
X133990000Y-97155000D03*
D20*
X128143000Y-105918000D03*
X126644400Y-105918000D03*
D21*
X124206000Y-97583000D03*
X124206000Y-100283000D03*
D22*
X144991000Y-106045000D03*
X142791000Y-106045000D03*
D23*
X131826000Y-99652000D03*
X131826000Y-97452000D03*
D22*
X138092000Y-97155000D03*
X140292000Y-97155000D03*
X132164000Y-105918000D03*
X129964000Y-105918000D03*
D24*
X138910000Y-104000000D03*
X138410000Y-104000000D03*
X137910000Y-104000000D03*
X137410000Y-104000000D03*
X136910000Y-104000000D03*
X136410000Y-104000000D03*
X135910000Y-104000000D03*
X135410000Y-104000000D03*
D25*
X134760000Y-103350000D03*
X134760000Y-102850000D03*
X134760000Y-102350000D03*
X134760000Y-101850000D03*
X134760000Y-101350000D03*
X134760000Y-100850000D03*
X134760000Y-100350000D03*
X134760000Y-99850000D03*
D24*
X135410000Y-99200000D03*
X135910000Y-99200000D03*
X136410000Y-99200000D03*
X136910000Y-99200000D03*
X137410000Y-99200000D03*
X137910000Y-99200000D03*
X138410000Y-99200000D03*
X138910000Y-99200000D03*
D25*
X139560000Y-99850000D03*
X139560000Y-100350000D03*
X139560000Y-100850000D03*
X139560000Y-101350000D03*
X139560000Y-101850000D03*
X139560000Y-102350000D03*
X139560000Y-102850000D03*
X139560000Y-103350000D03*
D26*
X136297500Y-100737500D03*
X138022500Y-100737500D03*
X136297500Y-102462500D03*
X138022500Y-102462500D03*
D27*
X126431000Y-97409000D03*
X127381000Y-97409000D03*
X128331000Y-97409000D03*
X128331000Y-99609000D03*
X126431000Y-99609000D03*
D28*
X130175000Y-99502000D03*
X130175000Y-97602000D03*
M02*
