M48
;DRILL file {KiCad 4.0.4-stable} date 09/24/16 18:26:28
;FORMAT={-:-/ absolute / inch / decimal}
FMAT,2
INCH,TZ
T1C0.016
T2C0.026
T3C0.040
%
G90
G05
M72
T1
X4.7736Y-3.8091
X4.8213Y-3.9013
X4.955Y-4.015
X5.125Y-4.1087
X5.2324Y-3.885
X5.235Y-3.925
X5.255Y-3.955
X5.26Y-4.07
X5.366Y-3.966
X5.366Y-4.034
X5.39Y-4.1353
X5.395Y-3.865
X5.43Y-4.135
X5.434Y-3.966
X5.434Y-4.034
X5.535Y-4.17
X5.5413Y-4.0748
X5.5695Y-3.8089
T2
X5.Y-3.995
X5.Y-4.045
X5.05Y-3.995
X5.05Y-4.045
X5.1Y-3.995
X5.1Y-4.045
X5.15Y-3.995
X5.15Y-4.045
X5.2Y-3.995
X5.2Y-4.045
T3
X4.75Y-3.9
X4.75Y-4.
X4.75Y-4.1
X4.89Y-4.05
X4.89Y-4.15
X5.615Y-3.9
X5.615Y-4.
X5.615Y-4.1
X5.715Y-3.9
X5.715Y-4.
X5.715Y-4.1
X5.855Y-3.85
X5.855Y-3.95
X5.855Y-4.05
X5.855Y-4.15
T0
M30
