G04 #@! TF.FileFunction,Copper,L1,Top,Signal*
%FSLAX46Y46*%
G04 Gerber Fmt 4.6, Leading zero omitted, Abs format (unit mm)*
G04 Created by KiCad (PCBNEW 4.0.4-stable) date 09/24/16 18:26:32*
%MOMM*%
%LPD*%
G01*
G04 APERTURE LIST*
%ADD10C,0.100000*%
%ADD11R,1.300000X1.550000*%
%ADD12R,2.032000X1.727200*%
%ADD13O,2.032000X1.727200*%
%ADD14R,1.050000X1.050000*%
%ADD15C,1.050000*%
%ADD16R,2.032000X2.032000*%
%ADD17O,2.032000X2.032000*%
%ADD18R,1.727200X1.727200*%
%ADD19O,1.727200X1.727200*%
%ADD20C,0.600000*%
%ADD21C,0.508000*%
%ADD22C,0.250000*%
%ADD23C,0.203200*%
%ADD24C,0.254000*%
G04 APERTURE END LIST*
D10*
D11*
X139410000Y-105575000D03*
X134910000Y-105575000D03*
X134910000Y-97625000D03*
X139410000Y-97625000D03*
X131790000Y-105575000D03*
X127290000Y-105575000D03*
X127290000Y-97625000D03*
X131790000Y-97625000D03*
D12*
X120650000Y-99060000D03*
D13*
X120650000Y-101600000D03*
X120650000Y-104140000D03*
D14*
X132080000Y-101473000D03*
D15*
X130810000Y-101473000D03*
X129540000Y-101473000D03*
X128270000Y-101473000D03*
X127000000Y-101473000D03*
X130810000Y-102743000D03*
X129540000Y-102743000D03*
X128270000Y-102743000D03*
X127000000Y-102743000D03*
X132080000Y-102743000D03*
D16*
X124206000Y-102870000D03*
D17*
X124206000Y-105410000D03*
D12*
X148717000Y-97790000D03*
D13*
X148717000Y-100330000D03*
X148717000Y-102870000D03*
X148717000Y-105410000D03*
D18*
X145161000Y-104140000D03*
D19*
X142621000Y-104140000D03*
X145161000Y-101600000D03*
X142621000Y-101600000D03*
X145161000Y-99060000D03*
X142621000Y-99060000D03*
D20*
X137033000Y-98171000D03*
X132969000Y-99695000D03*
X140750000Y-103500000D03*
X138022500Y-102462500D03*
X121250000Y-96750000D03*
X133477000Y-100457000D03*
X136297500Y-102462500D03*
X138022500Y-100737500D03*
X136297500Y-100737500D03*
X122459804Y-99091804D03*
X132903000Y-98679000D03*
X136906000Y-105036518D03*
X141466043Y-96744841D03*
X133604000Y-103378000D03*
X130175000Y-104360600D03*
X125857000Y-101981000D03*
X140589000Y-105918000D03*
X137922000Y-105029000D03*
D21*
X145161000Y-104140000D02*
X145542000Y-104140000D01*
X146558000Y-103124000D02*
X146558000Y-97663000D01*
X145542000Y-104140000D02*
X146558000Y-103124000D01*
X146558000Y-97663000D02*
X146177000Y-97282000D01*
X146177000Y-97282000D02*
X141995202Y-97282000D01*
X141995202Y-97282000D02*
X140344202Y-98933000D01*
X140344202Y-98933000D02*
X137033000Y-98933000D01*
X133731000Y-98933000D02*
X137033000Y-98933000D01*
X137033000Y-98933000D02*
X137033000Y-98171000D01*
X132969000Y-99695000D02*
X133731000Y-98933000D01*
X132258922Y-101473000D02*
X132080000Y-101473000D01*
D22*
X138022500Y-102462500D02*
X139712500Y-102462500D01*
X139712500Y-102462500D02*
X140750000Y-103500000D01*
D23*
X138601396Y-103041396D02*
X138022500Y-102462500D01*
D22*
X125000000Y-97625000D02*
X122125000Y-97625000D01*
X122125000Y-97625000D02*
X121250000Y-96750000D01*
D23*
X130810000Y-101473000D02*
X130810000Y-100730538D01*
X130810000Y-100730538D02*
X131083538Y-100457000D01*
X131083538Y-100457000D02*
X133477000Y-100457000D01*
X127290000Y-97625000D02*
X125000000Y-97625000D01*
X125000000Y-97625000D02*
X123926608Y-97625000D01*
X123926608Y-97625000D02*
X122459804Y-99091804D01*
X132903000Y-98679000D02*
X132844000Y-98679000D01*
X132844000Y-98679000D02*
X131790000Y-97625000D01*
X136906000Y-105036518D02*
X137500083Y-105630601D01*
X137500083Y-105630601D02*
X138501199Y-105630601D01*
X138501199Y-105630601D02*
X138556800Y-105575000D01*
X138556800Y-105575000D02*
X139410000Y-105575000D01*
X141466043Y-96744841D02*
X140585884Y-97625000D01*
X140585884Y-97625000D02*
X139410000Y-97625000D01*
X125857000Y-101981000D02*
X125857000Y-101556736D01*
X121031000Y-101219000D02*
X120650000Y-101600000D01*
X125857000Y-101556736D02*
X125519264Y-101219000D01*
X125519264Y-101219000D02*
X121031000Y-101219000D01*
X130175000Y-104360600D02*
X132621400Y-104360600D01*
X132621400Y-104360600D02*
X133604000Y-103378000D01*
X138452601Y-104498399D02*
X139954000Y-104498399D01*
X139954000Y-104498399D02*
X140301281Y-104498399D01*
X140301281Y-104498399D02*
X140589000Y-104786118D01*
X140589000Y-104786118D02*
X140589000Y-105918000D01*
X137922000Y-105029000D02*
X138452601Y-104498399D01*
D24*
G36*
X140785161Y-96608787D02*
X140785044Y-96743340D01*
X140448464Y-97079920D01*
X140448464Y-96850000D01*
X140421897Y-96708810D01*
X140338454Y-96579135D01*
X140211134Y-96492141D01*
X140060000Y-96461536D01*
X138760000Y-96461536D01*
X138618810Y-96488103D01*
X138489135Y-96571546D01*
X138402141Y-96698866D01*
X138371536Y-96850000D01*
X138371536Y-98298000D01*
X137713890Y-98298000D01*
X137714118Y-98036135D01*
X137610661Y-97785748D01*
X137419259Y-97594013D01*
X137169054Y-97490118D01*
X136898135Y-97489882D01*
X136647748Y-97593339D01*
X136456013Y-97784741D01*
X136352118Y-98034946D01*
X136351889Y-98298000D01*
X135941000Y-98298000D01*
X135941000Y-97847250D01*
X135845750Y-97752000D01*
X135037000Y-97752000D01*
X135037000Y-97772000D01*
X134783000Y-97772000D01*
X134783000Y-97752000D01*
X133974250Y-97752000D01*
X133879000Y-97847250D01*
X133879000Y-98298000D01*
X133731000Y-98298000D01*
X133501297Y-98343690D01*
X133480661Y-98293748D01*
X133289259Y-98102013D01*
X133039054Y-97998118D01*
X132845449Y-97997949D01*
X132828464Y-97980964D01*
X132828464Y-96850000D01*
X132814204Y-96774214D01*
X133879000Y-96774214D01*
X133879000Y-97402750D01*
X133974250Y-97498000D01*
X134783000Y-97498000D01*
X134783000Y-96564250D01*
X135037000Y-96564250D01*
X135037000Y-97498000D01*
X135845750Y-97498000D01*
X135941000Y-97402750D01*
X135941000Y-96774214D01*
X135882996Y-96634180D01*
X135775819Y-96527004D01*
X135635785Y-96469000D01*
X135132250Y-96469000D01*
X135037000Y-96564250D01*
X134783000Y-96564250D01*
X134687750Y-96469000D01*
X134184215Y-96469000D01*
X134044181Y-96527004D01*
X133937004Y-96634180D01*
X133879000Y-96774214D01*
X132814204Y-96774214D01*
X132801897Y-96708810D01*
X132718454Y-96579135D01*
X132591134Y-96492141D01*
X132440000Y-96461536D01*
X131140000Y-96461536D01*
X130998810Y-96488103D01*
X130869135Y-96571546D01*
X130782141Y-96698866D01*
X130751536Y-96850000D01*
X130751536Y-98400000D01*
X130778103Y-98541190D01*
X130861546Y-98670865D01*
X130988866Y-98757859D01*
X131140000Y-98788464D01*
X132221904Y-98788464D01*
X132221882Y-98813865D01*
X132325339Y-99064252D01*
X132480862Y-99220046D01*
X132392013Y-99308741D01*
X132288118Y-99558946D01*
X132287882Y-99829865D01*
X132391339Y-100080252D01*
X132582741Y-100271987D01*
X132832946Y-100375882D01*
X133103865Y-100376118D01*
X133354252Y-100272661D01*
X133545987Y-100081259D01*
X133592300Y-99969726D01*
X133994026Y-99568000D01*
X140344202Y-99568000D01*
X140587206Y-99519664D01*
X140793215Y-99382013D01*
X141410813Y-98764415D01*
X141352017Y-99060000D01*
X141446757Y-99536288D01*
X141716552Y-99940065D01*
X142120329Y-100209860D01*
X142596617Y-100304600D01*
X142645383Y-100304600D01*
X143121671Y-100209860D01*
X143525448Y-99940065D01*
X143795243Y-99536288D01*
X143826506Y-99379118D01*
X143958007Y-99379118D01*
X144084695Y-99685001D01*
X144405801Y-100049310D01*
X144841880Y-100263005D01*
X145034000Y-100202865D01*
X145034000Y-99187000D01*
X144018688Y-99187000D01*
X143958007Y-99379118D01*
X143826506Y-99379118D01*
X143889983Y-99060000D01*
X143795243Y-98583712D01*
X143525448Y-98179935D01*
X143131938Y-97917000D01*
X144719430Y-97917000D01*
X144405801Y-98070690D01*
X144084695Y-98434999D01*
X143958007Y-98740882D01*
X144018688Y-98933000D01*
X145034000Y-98933000D01*
X145034000Y-98913000D01*
X145288000Y-98913000D01*
X145288000Y-98933000D01*
X145308000Y-98933000D01*
X145308000Y-99187000D01*
X145288000Y-99187000D01*
X145288000Y-100202865D01*
X145480120Y-100263005D01*
X145916199Y-100049310D01*
X145923000Y-100041594D01*
X145923000Y-100624754D01*
X145661671Y-100450140D01*
X145185383Y-100355400D01*
X145136617Y-100355400D01*
X144660329Y-100450140D01*
X144256552Y-100719935D01*
X143986757Y-101123712D01*
X143892017Y-101600000D01*
X143986757Y-102076288D01*
X144256552Y-102480065D01*
X144660329Y-102749860D01*
X145136617Y-102844600D01*
X145185383Y-102844600D01*
X145661671Y-102749860D01*
X145923000Y-102575246D01*
X145923000Y-102860974D01*
X145896038Y-102887936D01*
X144297400Y-102887936D01*
X144156210Y-102914503D01*
X144026535Y-102997946D01*
X143939541Y-103125266D01*
X143908936Y-103276400D01*
X143908936Y-105003600D01*
X143935503Y-105144790D01*
X144018946Y-105274465D01*
X144146266Y-105361459D01*
X144297400Y-105392064D01*
X146024600Y-105392064D01*
X146165790Y-105365497D01*
X146295465Y-105282054D01*
X146382459Y-105154734D01*
X146395389Y-105090882D01*
X147361607Y-105090882D01*
X147422288Y-105283000D01*
X148590000Y-105283000D01*
X148590000Y-104259357D01*
X148394787Y-104175473D01*
X147935280Y-104334430D01*
X147571581Y-104657133D01*
X147361607Y-105090882D01*
X146395389Y-105090882D01*
X146413064Y-105003600D01*
X146413064Y-104166962D01*
X147007013Y-103573013D01*
X147144664Y-103367004D01*
X147193000Y-103124000D01*
X147193000Y-97663000D01*
X147144664Y-97419996D01*
X147144664Y-97419995D01*
X147007013Y-97213987D01*
X146626013Y-96832987D01*
X146420004Y-96695336D01*
X146177000Y-96647000D01*
X142147129Y-96647000D01*
X142147161Y-96609976D01*
X142083540Y-96456000D01*
X148955088Y-96456000D01*
X149367007Y-96537936D01*
X147701000Y-96537936D01*
X147559810Y-96564503D01*
X147430135Y-96647946D01*
X147343141Y-96775266D01*
X147312536Y-96926400D01*
X147312536Y-98653600D01*
X147339103Y-98794790D01*
X147422546Y-98924465D01*
X147549866Y-99011459D01*
X147701000Y-99042064D01*
X149733000Y-99042064D01*
X149874190Y-99015497D01*
X150003865Y-98932054D01*
X150044000Y-98873314D01*
X150044000Y-99849777D01*
X149776834Y-99449935D01*
X149373057Y-99180140D01*
X148896769Y-99085400D01*
X148537231Y-99085400D01*
X148060943Y-99180140D01*
X147657166Y-99449935D01*
X147387371Y-99853712D01*
X147292631Y-100330000D01*
X147387371Y-100806288D01*
X147657166Y-101210065D01*
X148060943Y-101479860D01*
X148537231Y-101574600D01*
X148896769Y-101574600D01*
X149373057Y-101479860D01*
X149776834Y-101210065D01*
X150044000Y-100810223D01*
X150044000Y-102389777D01*
X149776834Y-101989935D01*
X149373057Y-101720140D01*
X148896769Y-101625400D01*
X148537231Y-101625400D01*
X148060943Y-101720140D01*
X147657166Y-101989935D01*
X147387371Y-102393712D01*
X147292631Y-102870000D01*
X147387371Y-103346288D01*
X147657166Y-103750065D01*
X148060943Y-104019860D01*
X148537231Y-104114600D01*
X148896769Y-104114600D01*
X149373057Y-104019860D01*
X149776834Y-103750065D01*
X150044000Y-103350223D01*
X150044000Y-105032230D01*
X149862419Y-104657133D01*
X149498720Y-104334430D01*
X149039213Y-104175473D01*
X148844000Y-104259357D01*
X148844000Y-105283000D01*
X148864000Y-105283000D01*
X148864000Y-105537000D01*
X148844000Y-105537000D01*
X148844000Y-105557000D01*
X148590000Y-105557000D01*
X148590000Y-105537000D01*
X147422288Y-105537000D01*
X147361607Y-105729118D01*
X147571581Y-106162867D01*
X147935280Y-106485570D01*
X148104187Y-106544000D01*
X140857262Y-106544000D01*
X140974252Y-106495661D01*
X141165987Y-106304259D01*
X141269882Y-106054054D01*
X141270118Y-105783135D01*
X141166661Y-105532748D01*
X141071600Y-105437522D01*
X141071600Y-104786118D01*
X141034864Y-104601435D01*
X140930250Y-104444868D01*
X140642531Y-104157149D01*
X140616866Y-104140000D01*
X141352017Y-104140000D01*
X141446757Y-104616288D01*
X141716552Y-105020065D01*
X142120329Y-105289860D01*
X142596617Y-105384600D01*
X142645383Y-105384600D01*
X143121671Y-105289860D01*
X143525448Y-105020065D01*
X143795243Y-104616288D01*
X143889983Y-104140000D01*
X143795243Y-103663712D01*
X143525448Y-103259935D01*
X143121671Y-102990140D01*
X142645383Y-102895400D01*
X142596617Y-102895400D01*
X142120329Y-102990140D01*
X141716552Y-103259935D01*
X141446757Y-103663712D01*
X141352017Y-104140000D01*
X140616866Y-104140000D01*
X140485964Y-104052535D01*
X140301281Y-104015799D01*
X138452601Y-104015799D01*
X138267918Y-104052535D01*
X138111351Y-104157149D01*
X137920502Y-104347998D01*
X137787135Y-104347882D01*
X137536748Y-104451339D01*
X137410195Y-104577672D01*
X137292259Y-104459531D01*
X137042054Y-104355636D01*
X136771135Y-104355400D01*
X136520748Y-104458857D01*
X136329013Y-104650259D01*
X136225118Y-104900464D01*
X136224882Y-105171383D01*
X136328339Y-105421770D01*
X136519741Y-105613505D01*
X136769946Y-105717400D01*
X136904499Y-105717517D01*
X137158833Y-105971851D01*
X137315400Y-106076465D01*
X137500083Y-106113201D01*
X138371536Y-106113201D01*
X138371536Y-106350000D01*
X138398103Y-106491190D01*
X138432085Y-106544000D01*
X135892034Y-106544000D01*
X135941000Y-106425786D01*
X135941000Y-105797250D01*
X135845750Y-105702000D01*
X135037000Y-105702000D01*
X135037000Y-105722000D01*
X134783000Y-105722000D01*
X134783000Y-105702000D01*
X133974250Y-105702000D01*
X133879000Y-105797250D01*
X133879000Y-106425786D01*
X133927966Y-106544000D01*
X132768570Y-106544000D01*
X132797859Y-106501134D01*
X132828464Y-106350000D01*
X132828464Y-104800000D01*
X132827045Y-104792458D01*
X132929179Y-104724214D01*
X133879000Y-104724214D01*
X133879000Y-105352750D01*
X133974250Y-105448000D01*
X134783000Y-105448000D01*
X134783000Y-104514250D01*
X135037000Y-104514250D01*
X135037000Y-105448000D01*
X135845750Y-105448000D01*
X135941000Y-105352750D01*
X135941000Y-104724214D01*
X135882996Y-104584180D01*
X135775819Y-104477004D01*
X135635785Y-104419000D01*
X135132250Y-104419000D01*
X135037000Y-104514250D01*
X134783000Y-104514250D01*
X134687750Y-104419000D01*
X134184215Y-104419000D01*
X134044181Y-104477004D01*
X133937004Y-104584180D01*
X133879000Y-104724214D01*
X132929179Y-104724214D01*
X132962650Y-104701850D01*
X133605498Y-104059002D01*
X133738865Y-104059118D01*
X133989252Y-103955661D01*
X134180987Y-103764259D01*
X134284882Y-103514054D01*
X134285118Y-103243135D01*
X134181661Y-102992748D01*
X133990259Y-102801013D01*
X133740054Y-102697118D01*
X133469135Y-102696882D01*
X133218748Y-102800339D01*
X133027013Y-102991741D01*
X132923118Y-103241946D01*
X132923001Y-103376499D01*
X132421500Y-103878000D01*
X130655482Y-103878000D01*
X130561259Y-103783613D01*
X130311054Y-103679718D01*
X130040135Y-103679482D01*
X129789748Y-103782939D01*
X129598013Y-103974341D01*
X129494118Y-104224546D01*
X129493882Y-104495465D01*
X129597339Y-104745852D01*
X129788741Y-104937587D01*
X130038946Y-105041482D01*
X130309865Y-105041718D01*
X130560252Y-104938261D01*
X130655478Y-104843200D01*
X130751536Y-104843200D01*
X130751536Y-106350000D01*
X130778103Y-106491190D01*
X130812085Y-106544000D01*
X128272034Y-106544000D01*
X128321000Y-106425786D01*
X128321000Y-105797250D01*
X128225750Y-105702000D01*
X127417000Y-105702000D01*
X127417000Y-105722000D01*
X127163000Y-105722000D01*
X127163000Y-105702000D01*
X126354250Y-105702000D01*
X126259000Y-105797250D01*
X126259000Y-106425786D01*
X126307966Y-106544000D01*
X125011504Y-106544000D01*
X125041199Y-106529858D01*
X125406174Y-106124997D01*
X125560220Y-105753070D01*
X125501540Y-105537000D01*
X124333000Y-105537000D01*
X124333000Y-105557000D01*
X124079000Y-105557000D01*
X124079000Y-105537000D01*
X122910460Y-105537000D01*
X122851780Y-105753070D01*
X123005826Y-106124997D01*
X123370801Y-106529858D01*
X123400496Y-106544000D01*
X120956000Y-106544000D01*
X120956000Y-105367560D01*
X120972213Y-105374527D01*
X121431720Y-105215570D01*
X121795419Y-104892867D01*
X122005393Y-104459118D01*
X121944712Y-104267000D01*
X120956000Y-104267000D01*
X120956000Y-104013000D01*
X121944712Y-104013000D01*
X122005393Y-103820882D01*
X121795419Y-103387133D01*
X121431720Y-103064430D01*
X120972213Y-102905473D01*
X120956000Y-102912440D01*
X120956000Y-102819491D01*
X121306057Y-102749860D01*
X121709834Y-102480065D01*
X121979629Y-102076288D01*
X122054159Y-101701600D01*
X122833006Y-101701600D01*
X122832141Y-101702866D01*
X122801536Y-101854000D01*
X122801536Y-103886000D01*
X122828103Y-104027190D01*
X122911546Y-104156865D01*
X123038866Y-104243859D01*
X123190000Y-104274464D01*
X123403721Y-104274464D01*
X123370801Y-104290142D01*
X123005826Y-104695003D01*
X122851780Y-105066930D01*
X122910460Y-105283000D01*
X124079000Y-105283000D01*
X124079000Y-105263000D01*
X124333000Y-105263000D01*
X124333000Y-105283000D01*
X125501540Y-105283000D01*
X125560220Y-105066930D01*
X125418273Y-104724214D01*
X126259000Y-104724214D01*
X126259000Y-105352750D01*
X126354250Y-105448000D01*
X127163000Y-105448000D01*
X127163000Y-104514250D01*
X127417000Y-104514250D01*
X127417000Y-105448000D01*
X128225750Y-105448000D01*
X128321000Y-105352750D01*
X128321000Y-104724214D01*
X128262996Y-104584180D01*
X128155819Y-104477004D01*
X128015785Y-104419000D01*
X127512250Y-104419000D01*
X127417000Y-104514250D01*
X127163000Y-104514250D01*
X127067750Y-104419000D01*
X126564215Y-104419000D01*
X126424181Y-104477004D01*
X126317004Y-104584180D01*
X126259000Y-104724214D01*
X125418273Y-104724214D01*
X125406174Y-104695003D01*
X125041199Y-104290142D01*
X125008279Y-104274464D01*
X125222000Y-104274464D01*
X125363190Y-104247897D01*
X125492865Y-104164454D01*
X125579859Y-104037134D01*
X125610464Y-103886000D01*
X125610464Y-102616006D01*
X125720946Y-102661882D01*
X125991865Y-102662118D01*
X126094107Y-102619873D01*
X126093843Y-102922424D01*
X126231482Y-103255538D01*
X126486122Y-103510622D01*
X126818995Y-103648843D01*
X127179424Y-103649157D01*
X127512538Y-103511518D01*
X127634990Y-103389279D01*
X127756122Y-103510622D01*
X128088995Y-103648843D01*
X128449424Y-103649157D01*
X128782538Y-103511518D01*
X128904990Y-103389279D01*
X129026122Y-103510622D01*
X129358995Y-103648843D01*
X129719424Y-103649157D01*
X130052538Y-103511518D01*
X130174990Y-103389279D01*
X130296122Y-103510622D01*
X130628995Y-103648843D01*
X130989424Y-103649157D01*
X131322538Y-103511518D01*
X131444990Y-103389279D01*
X131566122Y-103510622D01*
X131898995Y-103648843D01*
X132259424Y-103649157D01*
X132592538Y-103511518D01*
X132847622Y-103256878D01*
X132985843Y-102924005D01*
X132986157Y-102563576D01*
X132869274Y-102280695D01*
X132875865Y-102276454D01*
X132962859Y-102149134D01*
X132993464Y-101998000D01*
X132993464Y-101600000D01*
X141352017Y-101600000D01*
X141446757Y-102076288D01*
X141716552Y-102480065D01*
X142120329Y-102749860D01*
X142596617Y-102844600D01*
X142645383Y-102844600D01*
X143121671Y-102749860D01*
X143525448Y-102480065D01*
X143795243Y-102076288D01*
X143889983Y-101600000D01*
X143795243Y-101123712D01*
X143525448Y-100719935D01*
X143121671Y-100450140D01*
X142645383Y-100355400D01*
X142596617Y-100355400D01*
X142120329Y-100450140D01*
X141716552Y-100719935D01*
X141446757Y-101123712D01*
X141352017Y-101600000D01*
X132993464Y-101600000D01*
X132993464Y-100948000D01*
X132966897Y-100806810D01*
X132883454Y-100677135D01*
X132756134Y-100590141D01*
X132605000Y-100559536D01*
X131555000Y-100559536D01*
X131413810Y-100586103D01*
X131284135Y-100669546D01*
X131261526Y-100702636D01*
X131245065Y-100658118D01*
X130900107Y-100553655D01*
X130541430Y-100589153D01*
X130374935Y-100658118D01*
X130320889Y-100804283D01*
X130810000Y-101293395D01*
X130824142Y-101279252D01*
X131003748Y-101458858D01*
X130989605Y-101473000D01*
X131003748Y-101487143D01*
X130824143Y-101666748D01*
X130810000Y-101652605D01*
X130795858Y-101666748D01*
X130616252Y-101487142D01*
X130630395Y-101473000D01*
X130430660Y-101273265D01*
X130423847Y-101204430D01*
X130354882Y-101037935D01*
X130208717Y-100983889D01*
X130175000Y-101017606D01*
X130141283Y-100983889D01*
X129995118Y-101037935D01*
X129925814Y-101266792D01*
X129719605Y-101473000D01*
X129733748Y-101487143D01*
X129554143Y-101666748D01*
X129540000Y-101652605D01*
X129525858Y-101666748D01*
X129346253Y-101487143D01*
X129360395Y-101473000D01*
X129346253Y-101458858D01*
X129525858Y-101279252D01*
X129540000Y-101293395D01*
X130029111Y-100804283D01*
X129975065Y-100658118D01*
X129630107Y-100553655D01*
X129271430Y-100589153D01*
X129104935Y-100658118D01*
X129050890Y-100804282D01*
X128978373Y-100731765D01*
X128894223Y-100815915D01*
X128783878Y-100705378D01*
X128451005Y-100567157D01*
X128090576Y-100566843D01*
X127757462Y-100704482D01*
X127645806Y-100815944D01*
X127561627Y-100731765D01*
X127489110Y-100804282D01*
X127435065Y-100658118D01*
X127090107Y-100553655D01*
X126731430Y-100589153D01*
X126564935Y-100658118D01*
X126510889Y-100804283D01*
X127000000Y-101293395D01*
X127014142Y-101279252D01*
X127193748Y-101458858D01*
X127179605Y-101473000D01*
X127193748Y-101487143D01*
X127014143Y-101666748D01*
X127000000Y-101652605D01*
X126985858Y-101666748D01*
X126806253Y-101487143D01*
X126820395Y-101473000D01*
X126331283Y-100983889D01*
X126185118Y-101037935D01*
X126146901Y-101164137D01*
X125860514Y-100877750D01*
X125703947Y-100773136D01*
X125519264Y-100736400D01*
X121720836Y-100736400D01*
X121709834Y-100719935D01*
X121306057Y-100450140D01*
X120956000Y-100380509D01*
X120956000Y-100312064D01*
X121666000Y-100312064D01*
X121807190Y-100285497D01*
X121936865Y-100202054D01*
X122023859Y-100074734D01*
X122054464Y-99923600D01*
X122054464Y-98196400D01*
X122027897Y-98055210D01*
X121944454Y-97925535D01*
X121829881Y-97847250D01*
X126259000Y-97847250D01*
X126259000Y-98475786D01*
X126317004Y-98615820D01*
X126424181Y-98722996D01*
X126564215Y-98781000D01*
X127067750Y-98781000D01*
X127163000Y-98685750D01*
X127163000Y-97752000D01*
X127417000Y-97752000D01*
X127417000Y-98685750D01*
X127512250Y-98781000D01*
X128015785Y-98781000D01*
X128155819Y-98722996D01*
X128262996Y-98615820D01*
X128321000Y-98475786D01*
X128321000Y-97847250D01*
X128225750Y-97752000D01*
X127417000Y-97752000D01*
X127163000Y-97752000D01*
X126354250Y-97752000D01*
X126259000Y-97847250D01*
X121829881Y-97847250D01*
X121817134Y-97838541D01*
X121666000Y-97807936D01*
X120956000Y-97807936D01*
X120956000Y-96774214D01*
X126259000Y-96774214D01*
X126259000Y-97402750D01*
X126354250Y-97498000D01*
X127163000Y-97498000D01*
X127163000Y-96564250D01*
X127417000Y-96564250D01*
X127417000Y-97498000D01*
X128225750Y-97498000D01*
X128321000Y-97402750D01*
X128321000Y-96774214D01*
X128262996Y-96634180D01*
X128155819Y-96527004D01*
X128015785Y-96469000D01*
X127512250Y-96469000D01*
X127417000Y-96564250D01*
X127163000Y-96564250D01*
X127067750Y-96469000D01*
X126564215Y-96469000D01*
X126424181Y-96527004D01*
X126317004Y-96634180D01*
X126259000Y-96774214D01*
X120956000Y-96774214D01*
X120956000Y-96456000D01*
X140848604Y-96456000D01*
X140785161Y-96608787D01*
X140785161Y-96608787D01*
G37*
X140785161Y-96608787D02*
X140785044Y-96743340D01*
X140448464Y-97079920D01*
X140448464Y-96850000D01*
X140421897Y-96708810D01*
X140338454Y-96579135D01*
X140211134Y-96492141D01*
X140060000Y-96461536D01*
X138760000Y-96461536D01*
X138618810Y-96488103D01*
X138489135Y-96571546D01*
X138402141Y-96698866D01*
X138371536Y-96850000D01*
X138371536Y-98298000D01*
X137713890Y-98298000D01*
X137714118Y-98036135D01*
X137610661Y-97785748D01*
X137419259Y-97594013D01*
X137169054Y-97490118D01*
X136898135Y-97489882D01*
X136647748Y-97593339D01*
X136456013Y-97784741D01*
X136352118Y-98034946D01*
X136351889Y-98298000D01*
X135941000Y-98298000D01*
X135941000Y-97847250D01*
X135845750Y-97752000D01*
X135037000Y-97752000D01*
X135037000Y-97772000D01*
X134783000Y-97772000D01*
X134783000Y-97752000D01*
X133974250Y-97752000D01*
X133879000Y-97847250D01*
X133879000Y-98298000D01*
X133731000Y-98298000D01*
X133501297Y-98343690D01*
X133480661Y-98293748D01*
X133289259Y-98102013D01*
X133039054Y-97998118D01*
X132845449Y-97997949D01*
X132828464Y-97980964D01*
X132828464Y-96850000D01*
X132814204Y-96774214D01*
X133879000Y-96774214D01*
X133879000Y-97402750D01*
X133974250Y-97498000D01*
X134783000Y-97498000D01*
X134783000Y-96564250D01*
X135037000Y-96564250D01*
X135037000Y-97498000D01*
X135845750Y-97498000D01*
X135941000Y-97402750D01*
X135941000Y-96774214D01*
X135882996Y-96634180D01*
X135775819Y-96527004D01*
X135635785Y-96469000D01*
X135132250Y-96469000D01*
X135037000Y-96564250D01*
X134783000Y-96564250D01*
X134687750Y-96469000D01*
X134184215Y-96469000D01*
X134044181Y-96527004D01*
X133937004Y-96634180D01*
X133879000Y-96774214D01*
X132814204Y-96774214D01*
X132801897Y-96708810D01*
X132718454Y-96579135D01*
X132591134Y-96492141D01*
X132440000Y-96461536D01*
X131140000Y-96461536D01*
X130998810Y-96488103D01*
X130869135Y-96571546D01*
X130782141Y-96698866D01*
X130751536Y-96850000D01*
X130751536Y-98400000D01*
X130778103Y-98541190D01*
X130861546Y-98670865D01*
X130988866Y-98757859D01*
X131140000Y-98788464D01*
X132221904Y-98788464D01*
X132221882Y-98813865D01*
X132325339Y-99064252D01*
X132480862Y-99220046D01*
X132392013Y-99308741D01*
X132288118Y-99558946D01*
X132287882Y-99829865D01*
X132391339Y-100080252D01*
X132582741Y-100271987D01*
X132832946Y-100375882D01*
X133103865Y-100376118D01*
X133354252Y-100272661D01*
X133545987Y-100081259D01*
X133592300Y-99969726D01*
X133994026Y-99568000D01*
X140344202Y-99568000D01*
X140587206Y-99519664D01*
X140793215Y-99382013D01*
X141410813Y-98764415D01*
X141352017Y-99060000D01*
X141446757Y-99536288D01*
X141716552Y-99940065D01*
X142120329Y-100209860D01*
X142596617Y-100304600D01*
X142645383Y-100304600D01*
X143121671Y-100209860D01*
X143525448Y-99940065D01*
X143795243Y-99536288D01*
X143826506Y-99379118D01*
X143958007Y-99379118D01*
X144084695Y-99685001D01*
X144405801Y-100049310D01*
X144841880Y-100263005D01*
X145034000Y-100202865D01*
X145034000Y-99187000D01*
X144018688Y-99187000D01*
X143958007Y-99379118D01*
X143826506Y-99379118D01*
X143889983Y-99060000D01*
X143795243Y-98583712D01*
X143525448Y-98179935D01*
X143131938Y-97917000D01*
X144719430Y-97917000D01*
X144405801Y-98070690D01*
X144084695Y-98434999D01*
X143958007Y-98740882D01*
X144018688Y-98933000D01*
X145034000Y-98933000D01*
X145034000Y-98913000D01*
X145288000Y-98913000D01*
X145288000Y-98933000D01*
X145308000Y-98933000D01*
X145308000Y-99187000D01*
X145288000Y-99187000D01*
X145288000Y-100202865D01*
X145480120Y-100263005D01*
X145916199Y-100049310D01*
X145923000Y-100041594D01*
X145923000Y-100624754D01*
X145661671Y-100450140D01*
X145185383Y-100355400D01*
X145136617Y-100355400D01*
X144660329Y-100450140D01*
X144256552Y-100719935D01*
X143986757Y-101123712D01*
X143892017Y-101600000D01*
X143986757Y-102076288D01*
X144256552Y-102480065D01*
X144660329Y-102749860D01*
X145136617Y-102844600D01*
X145185383Y-102844600D01*
X145661671Y-102749860D01*
X145923000Y-102575246D01*
X145923000Y-102860974D01*
X145896038Y-102887936D01*
X144297400Y-102887936D01*
X144156210Y-102914503D01*
X144026535Y-102997946D01*
X143939541Y-103125266D01*
X143908936Y-103276400D01*
X143908936Y-105003600D01*
X143935503Y-105144790D01*
X144018946Y-105274465D01*
X144146266Y-105361459D01*
X144297400Y-105392064D01*
X146024600Y-105392064D01*
X146165790Y-105365497D01*
X146295465Y-105282054D01*
X146382459Y-105154734D01*
X146395389Y-105090882D01*
X147361607Y-105090882D01*
X147422288Y-105283000D01*
X148590000Y-105283000D01*
X148590000Y-104259357D01*
X148394787Y-104175473D01*
X147935280Y-104334430D01*
X147571581Y-104657133D01*
X147361607Y-105090882D01*
X146395389Y-105090882D01*
X146413064Y-105003600D01*
X146413064Y-104166962D01*
X147007013Y-103573013D01*
X147144664Y-103367004D01*
X147193000Y-103124000D01*
X147193000Y-97663000D01*
X147144664Y-97419996D01*
X147144664Y-97419995D01*
X147007013Y-97213987D01*
X146626013Y-96832987D01*
X146420004Y-96695336D01*
X146177000Y-96647000D01*
X142147129Y-96647000D01*
X142147161Y-96609976D01*
X142083540Y-96456000D01*
X148955088Y-96456000D01*
X149367007Y-96537936D01*
X147701000Y-96537936D01*
X147559810Y-96564503D01*
X147430135Y-96647946D01*
X147343141Y-96775266D01*
X147312536Y-96926400D01*
X147312536Y-98653600D01*
X147339103Y-98794790D01*
X147422546Y-98924465D01*
X147549866Y-99011459D01*
X147701000Y-99042064D01*
X149733000Y-99042064D01*
X149874190Y-99015497D01*
X150003865Y-98932054D01*
X150044000Y-98873314D01*
X150044000Y-99849777D01*
X149776834Y-99449935D01*
X149373057Y-99180140D01*
X148896769Y-99085400D01*
X148537231Y-99085400D01*
X148060943Y-99180140D01*
X147657166Y-99449935D01*
X147387371Y-99853712D01*
X147292631Y-100330000D01*
X147387371Y-100806288D01*
X147657166Y-101210065D01*
X148060943Y-101479860D01*
X148537231Y-101574600D01*
X148896769Y-101574600D01*
X149373057Y-101479860D01*
X149776834Y-101210065D01*
X150044000Y-100810223D01*
X150044000Y-102389777D01*
X149776834Y-101989935D01*
X149373057Y-101720140D01*
X148896769Y-101625400D01*
X148537231Y-101625400D01*
X148060943Y-101720140D01*
X147657166Y-101989935D01*
X147387371Y-102393712D01*
X147292631Y-102870000D01*
X147387371Y-103346288D01*
X147657166Y-103750065D01*
X148060943Y-104019860D01*
X148537231Y-104114600D01*
X148896769Y-104114600D01*
X149373057Y-104019860D01*
X149776834Y-103750065D01*
X150044000Y-103350223D01*
X150044000Y-105032230D01*
X149862419Y-104657133D01*
X149498720Y-104334430D01*
X149039213Y-104175473D01*
X148844000Y-104259357D01*
X148844000Y-105283000D01*
X148864000Y-105283000D01*
X148864000Y-105537000D01*
X148844000Y-105537000D01*
X148844000Y-105557000D01*
X148590000Y-105557000D01*
X148590000Y-105537000D01*
X147422288Y-105537000D01*
X147361607Y-105729118D01*
X147571581Y-106162867D01*
X147935280Y-106485570D01*
X148104187Y-106544000D01*
X140857262Y-106544000D01*
X140974252Y-106495661D01*
X141165987Y-106304259D01*
X141269882Y-106054054D01*
X141270118Y-105783135D01*
X141166661Y-105532748D01*
X141071600Y-105437522D01*
X141071600Y-104786118D01*
X141034864Y-104601435D01*
X140930250Y-104444868D01*
X140642531Y-104157149D01*
X140616866Y-104140000D01*
X141352017Y-104140000D01*
X141446757Y-104616288D01*
X141716552Y-105020065D01*
X142120329Y-105289860D01*
X142596617Y-105384600D01*
X142645383Y-105384600D01*
X143121671Y-105289860D01*
X143525448Y-105020065D01*
X143795243Y-104616288D01*
X143889983Y-104140000D01*
X143795243Y-103663712D01*
X143525448Y-103259935D01*
X143121671Y-102990140D01*
X142645383Y-102895400D01*
X142596617Y-102895400D01*
X142120329Y-102990140D01*
X141716552Y-103259935D01*
X141446757Y-103663712D01*
X141352017Y-104140000D01*
X140616866Y-104140000D01*
X140485964Y-104052535D01*
X140301281Y-104015799D01*
X138452601Y-104015799D01*
X138267918Y-104052535D01*
X138111351Y-104157149D01*
X137920502Y-104347998D01*
X137787135Y-104347882D01*
X137536748Y-104451339D01*
X137410195Y-104577672D01*
X137292259Y-104459531D01*
X137042054Y-104355636D01*
X136771135Y-104355400D01*
X136520748Y-104458857D01*
X136329013Y-104650259D01*
X136225118Y-104900464D01*
X136224882Y-105171383D01*
X136328339Y-105421770D01*
X136519741Y-105613505D01*
X136769946Y-105717400D01*
X136904499Y-105717517D01*
X137158833Y-105971851D01*
X137315400Y-106076465D01*
X137500083Y-106113201D01*
X138371536Y-106113201D01*
X138371536Y-106350000D01*
X138398103Y-106491190D01*
X138432085Y-106544000D01*
X135892034Y-106544000D01*
X135941000Y-106425786D01*
X135941000Y-105797250D01*
X135845750Y-105702000D01*
X135037000Y-105702000D01*
X135037000Y-105722000D01*
X134783000Y-105722000D01*
X134783000Y-105702000D01*
X133974250Y-105702000D01*
X133879000Y-105797250D01*
X133879000Y-106425786D01*
X133927966Y-106544000D01*
X132768570Y-106544000D01*
X132797859Y-106501134D01*
X132828464Y-106350000D01*
X132828464Y-104800000D01*
X132827045Y-104792458D01*
X132929179Y-104724214D01*
X133879000Y-104724214D01*
X133879000Y-105352750D01*
X133974250Y-105448000D01*
X134783000Y-105448000D01*
X134783000Y-104514250D01*
X135037000Y-104514250D01*
X135037000Y-105448000D01*
X135845750Y-105448000D01*
X135941000Y-105352750D01*
X135941000Y-104724214D01*
X135882996Y-104584180D01*
X135775819Y-104477004D01*
X135635785Y-104419000D01*
X135132250Y-104419000D01*
X135037000Y-104514250D01*
X134783000Y-104514250D01*
X134687750Y-104419000D01*
X134184215Y-104419000D01*
X134044181Y-104477004D01*
X133937004Y-104584180D01*
X133879000Y-104724214D01*
X132929179Y-104724214D01*
X132962650Y-104701850D01*
X133605498Y-104059002D01*
X133738865Y-104059118D01*
X133989252Y-103955661D01*
X134180987Y-103764259D01*
X134284882Y-103514054D01*
X134285118Y-103243135D01*
X134181661Y-102992748D01*
X133990259Y-102801013D01*
X133740054Y-102697118D01*
X133469135Y-102696882D01*
X133218748Y-102800339D01*
X133027013Y-102991741D01*
X132923118Y-103241946D01*
X132923001Y-103376499D01*
X132421500Y-103878000D01*
X130655482Y-103878000D01*
X130561259Y-103783613D01*
X130311054Y-103679718D01*
X130040135Y-103679482D01*
X129789748Y-103782939D01*
X129598013Y-103974341D01*
X129494118Y-104224546D01*
X129493882Y-104495465D01*
X129597339Y-104745852D01*
X129788741Y-104937587D01*
X130038946Y-105041482D01*
X130309865Y-105041718D01*
X130560252Y-104938261D01*
X130655478Y-104843200D01*
X130751536Y-104843200D01*
X130751536Y-106350000D01*
X130778103Y-106491190D01*
X130812085Y-106544000D01*
X128272034Y-106544000D01*
X128321000Y-106425786D01*
X128321000Y-105797250D01*
X128225750Y-105702000D01*
X127417000Y-105702000D01*
X127417000Y-105722000D01*
X127163000Y-105722000D01*
X127163000Y-105702000D01*
X126354250Y-105702000D01*
X126259000Y-105797250D01*
X126259000Y-106425786D01*
X126307966Y-106544000D01*
X125011504Y-106544000D01*
X125041199Y-106529858D01*
X125406174Y-106124997D01*
X125560220Y-105753070D01*
X125501540Y-105537000D01*
X124333000Y-105537000D01*
X124333000Y-105557000D01*
X124079000Y-105557000D01*
X124079000Y-105537000D01*
X122910460Y-105537000D01*
X122851780Y-105753070D01*
X123005826Y-106124997D01*
X123370801Y-106529858D01*
X123400496Y-106544000D01*
X120956000Y-106544000D01*
X120956000Y-105367560D01*
X120972213Y-105374527D01*
X121431720Y-105215570D01*
X121795419Y-104892867D01*
X122005393Y-104459118D01*
X121944712Y-104267000D01*
X120956000Y-104267000D01*
X120956000Y-104013000D01*
X121944712Y-104013000D01*
X122005393Y-103820882D01*
X121795419Y-103387133D01*
X121431720Y-103064430D01*
X120972213Y-102905473D01*
X120956000Y-102912440D01*
X120956000Y-102819491D01*
X121306057Y-102749860D01*
X121709834Y-102480065D01*
X121979629Y-102076288D01*
X122054159Y-101701600D01*
X122833006Y-101701600D01*
X122832141Y-101702866D01*
X122801536Y-101854000D01*
X122801536Y-103886000D01*
X122828103Y-104027190D01*
X122911546Y-104156865D01*
X123038866Y-104243859D01*
X123190000Y-104274464D01*
X123403721Y-104274464D01*
X123370801Y-104290142D01*
X123005826Y-104695003D01*
X122851780Y-105066930D01*
X122910460Y-105283000D01*
X124079000Y-105283000D01*
X124079000Y-105263000D01*
X124333000Y-105263000D01*
X124333000Y-105283000D01*
X125501540Y-105283000D01*
X125560220Y-105066930D01*
X125418273Y-104724214D01*
X126259000Y-104724214D01*
X126259000Y-105352750D01*
X126354250Y-105448000D01*
X127163000Y-105448000D01*
X127163000Y-104514250D01*
X127417000Y-104514250D01*
X127417000Y-105448000D01*
X128225750Y-105448000D01*
X128321000Y-105352750D01*
X128321000Y-104724214D01*
X128262996Y-104584180D01*
X128155819Y-104477004D01*
X128015785Y-104419000D01*
X127512250Y-104419000D01*
X127417000Y-104514250D01*
X127163000Y-104514250D01*
X127067750Y-104419000D01*
X126564215Y-104419000D01*
X126424181Y-104477004D01*
X126317004Y-104584180D01*
X126259000Y-104724214D01*
X125418273Y-104724214D01*
X125406174Y-104695003D01*
X125041199Y-104290142D01*
X125008279Y-104274464D01*
X125222000Y-104274464D01*
X125363190Y-104247897D01*
X125492865Y-104164454D01*
X125579859Y-104037134D01*
X125610464Y-103886000D01*
X125610464Y-102616006D01*
X125720946Y-102661882D01*
X125991865Y-102662118D01*
X126094107Y-102619873D01*
X126093843Y-102922424D01*
X126231482Y-103255538D01*
X126486122Y-103510622D01*
X126818995Y-103648843D01*
X127179424Y-103649157D01*
X127512538Y-103511518D01*
X127634990Y-103389279D01*
X127756122Y-103510622D01*
X128088995Y-103648843D01*
X128449424Y-103649157D01*
X128782538Y-103511518D01*
X128904990Y-103389279D01*
X129026122Y-103510622D01*
X129358995Y-103648843D01*
X129719424Y-103649157D01*
X130052538Y-103511518D01*
X130174990Y-103389279D01*
X130296122Y-103510622D01*
X130628995Y-103648843D01*
X130989424Y-103649157D01*
X131322538Y-103511518D01*
X131444990Y-103389279D01*
X131566122Y-103510622D01*
X131898995Y-103648843D01*
X132259424Y-103649157D01*
X132592538Y-103511518D01*
X132847622Y-103256878D01*
X132985843Y-102924005D01*
X132986157Y-102563576D01*
X132869274Y-102280695D01*
X132875865Y-102276454D01*
X132962859Y-102149134D01*
X132993464Y-101998000D01*
X132993464Y-101600000D01*
X141352017Y-101600000D01*
X141446757Y-102076288D01*
X141716552Y-102480065D01*
X142120329Y-102749860D01*
X142596617Y-102844600D01*
X142645383Y-102844600D01*
X143121671Y-102749860D01*
X143525448Y-102480065D01*
X143795243Y-102076288D01*
X143889983Y-101600000D01*
X143795243Y-101123712D01*
X143525448Y-100719935D01*
X143121671Y-100450140D01*
X142645383Y-100355400D01*
X142596617Y-100355400D01*
X142120329Y-100450140D01*
X141716552Y-100719935D01*
X141446757Y-101123712D01*
X141352017Y-101600000D01*
X132993464Y-101600000D01*
X132993464Y-100948000D01*
X132966897Y-100806810D01*
X132883454Y-100677135D01*
X132756134Y-100590141D01*
X132605000Y-100559536D01*
X131555000Y-100559536D01*
X131413810Y-100586103D01*
X131284135Y-100669546D01*
X131261526Y-100702636D01*
X131245065Y-100658118D01*
X130900107Y-100553655D01*
X130541430Y-100589153D01*
X130374935Y-100658118D01*
X130320889Y-100804283D01*
X130810000Y-101293395D01*
X130824142Y-101279252D01*
X131003748Y-101458858D01*
X130989605Y-101473000D01*
X131003748Y-101487143D01*
X130824143Y-101666748D01*
X130810000Y-101652605D01*
X130795858Y-101666748D01*
X130616252Y-101487142D01*
X130630395Y-101473000D01*
X130430660Y-101273265D01*
X130423847Y-101204430D01*
X130354882Y-101037935D01*
X130208717Y-100983889D01*
X130175000Y-101017606D01*
X130141283Y-100983889D01*
X129995118Y-101037935D01*
X129925814Y-101266792D01*
X129719605Y-101473000D01*
X129733748Y-101487143D01*
X129554143Y-101666748D01*
X129540000Y-101652605D01*
X129525858Y-101666748D01*
X129346253Y-101487143D01*
X129360395Y-101473000D01*
X129346253Y-101458858D01*
X129525858Y-101279252D01*
X129540000Y-101293395D01*
X130029111Y-100804283D01*
X129975065Y-100658118D01*
X129630107Y-100553655D01*
X129271430Y-100589153D01*
X129104935Y-100658118D01*
X129050890Y-100804282D01*
X128978373Y-100731765D01*
X128894223Y-100815915D01*
X128783878Y-100705378D01*
X128451005Y-100567157D01*
X128090576Y-100566843D01*
X127757462Y-100704482D01*
X127645806Y-100815944D01*
X127561627Y-100731765D01*
X127489110Y-100804282D01*
X127435065Y-100658118D01*
X127090107Y-100553655D01*
X126731430Y-100589153D01*
X126564935Y-100658118D01*
X126510889Y-100804283D01*
X127000000Y-101293395D01*
X127014142Y-101279252D01*
X127193748Y-101458858D01*
X127179605Y-101473000D01*
X127193748Y-101487143D01*
X127014143Y-101666748D01*
X127000000Y-101652605D01*
X126985858Y-101666748D01*
X126806253Y-101487143D01*
X126820395Y-101473000D01*
X126331283Y-100983889D01*
X126185118Y-101037935D01*
X126146901Y-101164137D01*
X125860514Y-100877750D01*
X125703947Y-100773136D01*
X125519264Y-100736400D01*
X121720836Y-100736400D01*
X121709834Y-100719935D01*
X121306057Y-100450140D01*
X120956000Y-100380509D01*
X120956000Y-100312064D01*
X121666000Y-100312064D01*
X121807190Y-100285497D01*
X121936865Y-100202054D01*
X122023859Y-100074734D01*
X122054464Y-99923600D01*
X122054464Y-98196400D01*
X122027897Y-98055210D01*
X121944454Y-97925535D01*
X121829881Y-97847250D01*
X126259000Y-97847250D01*
X126259000Y-98475786D01*
X126317004Y-98615820D01*
X126424181Y-98722996D01*
X126564215Y-98781000D01*
X127067750Y-98781000D01*
X127163000Y-98685750D01*
X127163000Y-97752000D01*
X127417000Y-97752000D01*
X127417000Y-98685750D01*
X127512250Y-98781000D01*
X128015785Y-98781000D01*
X128155819Y-98722996D01*
X128262996Y-98615820D01*
X128321000Y-98475786D01*
X128321000Y-97847250D01*
X128225750Y-97752000D01*
X127417000Y-97752000D01*
X127163000Y-97752000D01*
X126354250Y-97752000D01*
X126259000Y-97847250D01*
X121829881Y-97847250D01*
X121817134Y-97838541D01*
X121666000Y-97807936D01*
X120956000Y-97807936D01*
X120956000Y-96774214D01*
X126259000Y-96774214D01*
X126259000Y-97402750D01*
X126354250Y-97498000D01*
X127163000Y-97498000D01*
X127163000Y-96564250D01*
X127417000Y-96564250D01*
X127417000Y-97498000D01*
X128225750Y-97498000D01*
X128321000Y-97402750D01*
X128321000Y-96774214D01*
X128262996Y-96634180D01*
X128155819Y-96527004D01*
X128015785Y-96469000D01*
X127512250Y-96469000D01*
X127417000Y-96564250D01*
X127163000Y-96564250D01*
X127067750Y-96469000D01*
X126564215Y-96469000D01*
X126424181Y-96527004D01*
X126317004Y-96634180D01*
X126259000Y-96774214D01*
X120956000Y-96774214D01*
X120956000Y-96456000D01*
X140848604Y-96456000D01*
X140785161Y-96608787D01*
M02*
